# Blender v2.77 (sub 0) OBJ File: 'puter.blend'
# www.blender.org
mtllib puter.mtl
o Cube
v 0.437078 0.914778 -1.953206
v 0.437078 0.914778 -0.863626
v -1.495237 0.914778 -0.863626
v -1.495237 0.914778 -1.953207
v 0.437079 2.707663 -1.953206
v 0.437078 2.914778 -0.863626
v -1.495237 2.914778 -0.863627
v -1.495237 2.707663 -1.953206
v 0.245101 1.106755 -0.863626
v -1.303260 1.106755 -0.863626
v 0.245101 2.722801 -0.863626
v -1.303260 2.722801 -0.863626
v 0.245101 1.106755 -0.940625
v -1.303260 1.106755 -0.940625
v 0.245101 2.722801 -0.940624
v -1.303260 2.722801 -0.940625
v -0.104279 0.914778 -1.647950
v -0.104279 0.914778 -1.168883
v -0.953879 0.914778 -1.647950
v -0.953879 0.914778 -1.168883
v -0.104279 0.854827 -1.647950
v -0.104279 0.854827 -1.168883
v -0.953879 0.854827 -1.647950
v -0.953879 0.854827 -1.168883
v -0.027130 0.854827 -1.691452
v -0.027130 0.854827 -1.125381
v -1.031029 0.854827 -1.691452
v -1.031029 0.854827 -1.125381
v -0.027130 0.782304 -1.691452
v -0.027130 0.782304 -1.125381
v -1.031029 0.782304 -1.691452
v -1.031029 0.782304 -1.125381
v -1.298844 1.828764 -0.744831
vn 0.0000 -1.0000 0.0000
vn 0.0000 0.9824 -0.1867
vn 1.0000 0.0000 0.0000
vn -0.0000 -0.0000 1.0000
vn -1.0000 -0.0000 -0.0000
vn 0.0000 0.0000 -1.0000
vn 0.0000 1.0000 0.0000
usemtl Material
s off
f 1//1 2//1 18//1 17//1
f 5//2 8//2 7//2 6//2
f 1//3 5//3 6//3 2//3
f 2//4 6//4 11//4 9//4
f 3//5 7//5 8//5 4//5
f 5//6 1//6 4//6 8//6
f 11//1 12//1 16//1 15//1
f 3//4 2//4 9//4 10//4
f 6//4 7//4 12//4 11//4
f 7//4 3//4 10//4 12//4
f 9//5 11//5 15//5 13//5
f 12//3 10//3 14//3 16//3
f 10//7 9//7 13//7 14//7
f 20//5 19//5 23//5 24//5
f 3//1 4//1 19//1 20//1
f 2//1 3//1 20//1 18//1
f 4//1 1//1 17//1 19//1
f 23//7 21//7 25//7 27//7
f 19//6 17//6 21//6 23//6
f 18//4 20//4 24//4 22//4
f 17//3 18//3 22//3 21//3
f 26//4 28//4 32//4 30//4
f 22//7 24//7 28//7 26//7
f 21//7 22//7 26//7 25//7
f 24//7 23//7 27//7 28//7
f 29//1 30//1 32//1 31//1
f 25//3 26//3 30//3 29//3
f 28//5 27//5 31//5 32//5
f 27//6 25//6 29//6 31//6
usemtl screen
f 13//4 15//4 16//4 14//4
